
  <svg
    version="1.0"
    xmlns="http://www.w3.org/2000/svg"
    xmlns:xlink="http://www.w3.org/1999/xlink"
    x="0"
    y="0"
  viewBox="60 75 220 100" 
    preserveAspectRatio="xMidYMid meet"
    color-interpolation-filters="sRGB"
  >
    <defs><linearGradient id="92" x1="0%" y1="0%" x2="100%" y2="0%"><stop offset="0%" stop-color="#fa71cd"/> <stop offset="100%" stop-color="#9b59b6"/></linearGradient><linearGradient id="93" x1="0%" y1="0%" x2="100%" y2="0%"><stop offset="0%" stop-color="#f9d423"/> <stop offset="100%" stop-color="#f83600"/></linearGradient><linearGradient id="94" x1="0%" y1="0%" x2="100%" y2="0%"><stop offset="0%" stop-color="#0064d2"/> <stop offset="100%" stop-color="#1cb0f6"/></linearGradient><linearGradient id="95" x1="0%" y1="0%" x2="100%" y2="0%"><stop offset="0%" stop-color="#f00978"/> <stop offset="100%" stop-color="#3f51b1"/></linearGradient><linearGradient id="96" x1="0%" y1="0%" x2="100%" y2="0%"><stop offset="0%" stop-color="#7873f5"/> <stop offset="100%" stop-color="#ec77ab"/></linearGradient><linearGradient id="97" x1="0%" y1="0%" x2="100%" y2="0%"><stop offset="0%" stop-color="#f9d423"/> <stop offset="100%" stop-color="#e14fad"/></linearGradient><linearGradient id="98" x1="0%" y1="0%" x2="100%" y2="0%"><stop offset="0%" stop-color="#009efd"/> <stop offset="100%" stop-color="#2af598"/></linearGradient><linearGradient id="99" x1="0%" y1="0%" x2="100%" y2="0%"><stop offset="0%" stop-color="#ffcc00"/> <stop offset="100%" stop-color="#00b140"/></linearGradient><linearGradient id="100" x1="0%" y1="0%" x2="100%" y2="0%"><stop offset="0%" stop-color="#d51007"/> <stop offset="100%" stop-color="#ff8177"/></linearGradient><linearGradient id="102" x1="0%" y1="0%" x2="100%" y2="0%"><stop offset="0%" stop-color="#a2b6df"/> <stop offset="100%" stop-color="#0c3483"/></linearGradient><linearGradient id="103" x1="0%" y1="0%" x2="100%" y2="0%"><stop offset="0%" stop-color="#7ac5d8"/> <stop offset="100%" stop-color="#eea2a2"/></linearGradient><linearGradient id="104" x1="0%" y1="0%" x2="100%" y2="0%"><stop offset="0%" stop-color="#00ecbc"/> <stop offset="100%" stop-color="#007adf"/></linearGradient><linearGradient id="105" x1="0%" y1="0%" x2="100%" y2="0%"><stop offset="0%" stop-color="#b88746"/> <stop offset="100%" stop-color="#fdf5a6"/></linearGradient></defs> <g fill="#fff" class="icon-text-wrapper icon-svg-group iconsvg" transform="translate(78.89800262451172,75.16069793701172)"><g class="iconsvg-imagesvg" transform="translate(60.501996994018555,0)"><g><rect fill="#fff" fill-opacity="0" stroke-width="2" x="0" y="0" width="61.2" height="55.95428571428571" class="image-rect"/> <svg filter="url(#colors7074058170)" x="0" y="0" width="61.2" height="55.95428571428571" filtersec="colorsf9989681008" class="image-svg-svg primary" style="overflow: visible;"><svg fill="#000000" xmlns="http://www.w3.org/2000/svg" xmlns:xlink="http://www.w3.org/1999/xlink" version="1.1" x="0px" y="0px" viewBox="11.899999618530273 13.199999809265137 80.5 73.5999984741211" style="enable-background:new 0 0 100 100;" xml:space="preserve"><g><rect x="11.9" y="39.5" width="8" height="20.9"/></g><g><rect x="30" y="25.6" width="8" height="48.9"/></g><g><rect x="48.1" y="13.2" width="8" height="73.6"/></g><g><rect x="84.4" y="39.5" width="8" height="20.9"/></g><g><rect x="66.3" y="25.6" width="8" height="48.9"/></g></svg></svg> <defs><filter id="colors7074058170"><feColorMatrix type="matrix" values="0 0 0 0 0.99609375  0 0 0 0 0.99609375  0 0 0 0 0.99609375  0 0 0 1 0" class="icon-feColorMatrix "/></filter> <filter id="colorsf9989681008"><feColorMatrix type="matrix" values="0 0 0 0 0.99609375  0 0 0 0 0.99609375  0 0 0 0 0.99609375  0 0 0 1 0" class="icon-fecolormatrix"/></filter> <filter id="colorsb1985270319"><feColorMatrix type="matrix" values="0 0 0 0 0  0 0 0 0 0  0 0 0 0 0  0 0 0 1 0" class="icon-fecolormatrix"/></filter></defs></g></g> <g transform="translate(0,62.95428466796875)"><g fill-rule="" class="tp-name iconsvg-namesvg" transform="translate(0,0)"><g transform="scale(0.8799999999999999)"><g><path d="M10.11-21.77L10.11-21.77Q12.35-21.77 14.34-20.91 16.33-20.06 17.8-18.58 19.28-17.1 20.14-15.11 20.99-13.12 20.99-10.88L20.99-10.88Q20.99-8.65 20.14-6.66 19.28-4.66 17.8-3.19 16.33-1.71 14.34-0.86 12.35 0 10.11 0L10.11 0 6.25 0 7.77-3.73 10.11-3.73Q11.54-3.73 12.84-4.28 14.15-4.82 15.18-5.82L15.18-5.82Q16.17-6.84 16.72-8.13 17.26-9.42 17.26-10.88L17.26-10.88Q17.26-12.32 16.72-13.62 16.17-14.93 15.18-15.95L15.18-15.95Q14.15-16.95 12.84-17.49 11.54-18.04 10.11-18.04L10.11-18.04 4.82-18.04 4.82-9.02 4.82-3.73 4.82 0 1.09 0 1.09-21.77 10.11-21.77ZM31.78-21.77L35.51-21.77 35.51-8.71Q35.51-6.81 34.8-5.15 34.08-3.48 32.84-2.24 31.6-1 29.92-0.28 28.24 0.44 26.34 0.44L26.34 0.44Q24.44 0.44 22.8-0.28 21.15-1 19.9-2.24L19.9-2.24 22.55-4.88Q24.13-3.3 26.34-3.3L26.34-3.3Q28.61-3.3 30.2-4.88L30.2-4.88Q30.97-5.66 31.38-6.64 31.78-7.62 31.78-8.71L31.78-8.71 31.78-21.77ZM53.71 0L53.71 0 49.82 0 42.98-21.77 46.9-21.77 51.72-6.44 56.16-21.77 60.08-21.77 64.9-6.44 69.35-21.77 73.24-21.77 66.89 0 63.01 0 58.19-15.33 53.71 0ZM84.18-18.5L84.18-18.5Q82.66-18.5 81.29-17.93 79.92-17.35 78.84-16.26L78.84-16.26Q77.75-15.18 77.17-13.81 76.6-12.44 76.6-10.92L76.6-10.92Q76.6-9.39 77.17-8.01 77.75-6.62 78.84-5.54L78.84-5.54Q79.92-4.45 81.29-3.89 82.66-3.33 84.18-3.33L84.18-3.33Q85.71-3.33 87.09-3.89 88.48-4.45 89.56-5.54L89.56-5.54Q90.65-6.62 91.21-8.01 91.77-9.39 91.77-10.92L91.77-10.92Q91.77-12.44 91.21-13.81 90.65-15.18 89.56-16.26L89.56-16.26Q88.48-17.35 87.09-17.93 85.71-18.5 84.18-18.5ZM84.18-22.24L84.18-22.24Q86.52-22.24 88.59-21.35 90.65-20.46 92.19-18.92 93.73-17.38 94.62-15.32 95.5-13.25 95.5-10.92L95.5-10.92Q95.5-8.58 94.62-6.52 93.73-4.45 92.19-2.91 90.65-1.37 88.59-0.48 86.52 0.4 84.18 0.4L84.18 0.4Q81.85 0.4 79.78-0.48 77.72-1.37 76.18-2.91 74.64-4.45 73.75-6.52 72.86-8.58 72.86-10.92L72.86-10.92Q72.86-13.25 73.75-15.32 74.64-17.38 76.18-18.92 77.72-20.46 79.78-21.35 81.85-22.24 84.18-22.24ZM113.32-13.96L113.32-13.96Q113.32-12.78 113-11.71 112.67-10.64 112.1-9.73 111.52-8.83 110.7-8.1 109.87-7.37 108.88-6.9L108.88-6.9 113.32 0 108.88 0 104.93-6.13 102.38-6.13 103.9-9.86 105.52-9.86Q107.2-9.86 108.41-11.07L108.41-11.07Q108.97-11.66 109.28-12.41 109.59-13.15 109.59-13.96L109.59-13.96Q109.59-14.77 109.28-15.52 108.97-16.26 108.41-16.82L108.41-16.82Q107.2-18.04 105.52-18.04L105.52-18.04 101.1-18.04 101.1-15.98 101.1-9.86 101.1-6.13 101.1 0 97.37 0 97.37-6.13 97.37-15.98 97.37-21.77 105.52-21.77Q107.14-21.77 108.55-21.15 109.97-20.53 111.02-19.47 112.08-18.41 112.7-17 113.32-15.58 113.32-13.96ZM132.64 0.06L132.64 0.06 127.35 0.06 119.08-8.21 119.08 0 115.35 0 115.35-21.74 119.08-21.74 119.08-13.5 127.29-21.71 132.57-21.71 121.72-10.85 132.64 0.06ZM147.44-6.22L147.44-6.22Q147.44-4.7 146.94-3.47 146.44-2.24 145.53-1.38 144.61-0.53 143.3-0.06 142 0.4 140.38 0.4L140.38 0.4Q137.8 0.4 135.78-0.42 133.76-1.24 132.45-2.3L132.45-2.3 135.03-4.88Q136.06-3.95 137.33-3.45L137.33-3.45Q138.11-3.14 138.79-3.05 139.48-2.95 139.91-2.95L139.91-2.95Q140.72-2.95 141.39-3.16 142.06-3.36 142.56-3.7L142.56-3.7Q143.61-4.48 143.61-5.75L143.61-5.75Q143.61-6.53 143.05-7.15L143.05-7.15Q142.62-7.65 141.94-7.96L141.94-7.96Q141.38-8.27 140.75-8.46 140.13-8.65 139.63-8.8L139.63-8.8Q139.48-8.86 139.35-8.88 139.23-8.89 139.14-8.96L139.14-8.96Q139.07-8.96 138.95-9.02L138.95-9.02Q138.3-9.21 137.07-9.67 135.84-10.14 134.63-10.95L134.63-10.95Q131.8-12.84 131.8-15.61L131.8-15.61Q131.8-17.45 132.43-18.71 133.07-19.97 134.1-20.76 135.12-21.55 136.38-21.89 137.64-22.24 138.86-22.24L138.86-22.24Q141.1-22.24 142.62-21.71 144.14-21.18 145.04-20.65L145.04-20.65Q145.51-20.37 145.84-20.11 146.16-19.84 146.41-19.62L146.41-19.62 143.77-16.95Q142.93-17.79 142.06-18.22L142.06-18.22Q140.75-18.85 139.32-18.85L139.32-18.85Q138.7-18.85 138.08-18.69 137.46-18.53 136.99-18.29L136.99-18.29Q135.62-17.45 135.62-16.08L135.62-16.08Q135.62-15.24 136.18-14.65L136.18-14.65Q136.59-14.18 137.3-13.81L137.3-13.81Q137.89-13.5 138.55-13.31 139.2-13.12 139.76-12.97L139.76-12.97 140.13-12.87Q140.29-12.81 140.72-12.69 141.16-12.56 141.75-12.32 142.34-12.07 143.04-11.72 143.74-11.38 144.42-10.92L144.42-10.92Q147.44-8.93 147.44-6.22ZM162.09-21.77L162.09-21.77 165.82-21.77 165.82 0 162.09 0 162.09-9.02 153.04-9.02 153.04 0 149.31 0 149.31-21.77 153.04-21.77 153.04-12.75 162.09-12.75 162.09-21.77ZM179-18.5L179-18.5Q177.48-18.5 176.11-17.93 174.74-17.35 173.66-16.26L173.66-16.26Q172.57-15.18 171.99-13.81 171.42-12.44 171.42-10.92L171.42-10.92Q171.42-9.39 171.99-8.01 172.57-6.62 173.66-5.54L173.66-5.54Q174.74-4.45 176.11-3.89 177.48-3.33 179-3.33L179-3.33Q180.53-3.33 181.91-3.89 183.3-4.45 184.38-5.54L184.38-5.54Q185.47-6.62 186.03-8.01 186.59-9.39 186.59-10.92L186.59-10.92Q186.59-12.44 186.03-13.81 185.47-15.18 184.38-16.26L184.38-16.26Q183.3-17.35 181.91-17.93 180.53-18.5 179-18.5ZM179-22.24L179-22.24Q181.34-22.24 183.41-21.35 185.47-20.46 187.01-18.92 188.55-17.38 189.44-15.32 190.32-13.25 190.32-10.92L190.32-10.92Q190.32-8.58 189.44-6.52 188.55-4.45 187.01-2.91 185.47-1.37 183.41-0.48 181.34 0.4 179 0.4L179 0.4Q176.67 0.4 174.6-0.48 172.54-1.37 171-2.91 169.46-4.45 168.57-6.52 167.68-8.58 167.68-10.92L167.68-10.92Q167.68-13.25 168.57-15.32 169.46-17.38 171-18.92 172.54-20.46 174.6-21.35 176.67-22.24 179-22.24ZM200.31-21.77L200.31-21.77Q201.92-21.77 203.36-21.15 204.79-20.53 205.84-19.47 206.9-18.41 207.52-17 208.14-15.58 208.14-13.96L208.14-13.96Q208.14-12.35 207.52-10.92 206.9-9.49 205.84-8.43 204.79-7.37 203.36-6.75 201.92-6.13 200.31-6.13L200.31-6.13 197.2-6.13 198.72-9.86 200.31-9.86Q201.99-9.86 203.2-11.07L203.2-11.07Q204.41-12.28 204.41-13.96L204.41-13.96Q204.41-15.67 203.2-16.82L203.2-16.82Q201.99-18.04 200.31-18.04L200.31-18.04 195.92-18.04 195.92 0 192.19 0 192.19-21.77 200.31-21.77Z" transform="translate(-1.090000033378601, 22.239999771118164)"/></g> </g></g> <g fill-rule="" class="tp-slogan iconsvg-slogansvg" fill="#fff" transform="translate(58.88079833984375,25.95840072631836)"> <g transform="scale(1, 1)"><g transform="scale(1.3200000000000003)"><path d="M0.62-3.94C0.62-3.30 0.71-2.72 0.89-2.21C1.06-1.71 1.31-1.28 1.62-0.93C1.93-0.58 2.30-0.32 2.74-0.13C3.17 0.05 3.64 0.14 4.16 0.14C4.69 0.14 5.17 0.06 5.59-0.11C6.01-0.29 6.34-0.50 6.60-0.77L6.60-4.08L4.02-4.08L4.02-3.25L5.69-3.25L5.69-1.20C5.53-1.06 5.32-0.94 5.07-0.86C4.82-0.77 4.55-0.73 4.27-0.73C3.85-0.73 3.47-0.81 3.15-0.96C2.83-1.11 2.55-1.33 2.33-1.61C2.11-1.89 1.95-2.23 1.83-2.62C1.71-3.02 1.66-3.46 1.66-3.96C1.66-4.45 1.72-4.89 1.84-5.28C1.97-5.67 2.14-6.01 2.36-6.28C2.59-6.56 2.86-6.77 3.18-6.92C3.50-7.07 3.86-7.14 4.26-7.14C4.66-7.14 4.99-7.07 5.25-6.93C5.51-6.79 5.74-6.62 5.94-6.41L6.50-7.04C6.27-7.28 5.97-7.51 5.61-7.71C5.25-7.91 4.79-8.02 4.25-8.02C3.72-8.02 3.24-7.92 2.80-7.73C2.36-7.55 1.97-7.28 1.65-6.92C1.33-6.57 1.07-6.14 0.89-5.64C0.71-5.14 0.62-4.57 0.62-3.94ZM8.48-7.87L8.48 0L13.14 0L13.14-0.85L9.48-0.85L9.48-3.71L12.47-3.71L12.47-4.56L9.48-4.56L9.48-7.03L13.02-7.03L13.02-7.87ZM15.80-4.14L15.80-7.07L17.12-7.07C17.74-7.07 18.21-6.96 18.54-6.76C18.87-6.55 19.03-6.18 19.03-5.66C19.03-5.15 18.87-4.77 18.54-4.52C18.21-4.27 17.74-4.14 17.12-4.14ZM19.13 0L20.26 0L18.26-3.43C18.80-3.57 19.23-3.82 19.55-4.19C19.87-4.56 20.03-5.05 20.03-5.66C20.03-6.07 19.96-6.42 19.82-6.70C19.69-6.98 19.50-7.20 19.25-7.38C19.01-7.56 18.72-7.68 18.38-7.76C18.04-7.83 17.67-7.87 17.27-7.87L14.81-7.87L14.81 0L15.80 0L15.80-3.32L17.23-3.32ZM21.78-7.87L21.78 0L22.70 0L22.70-4.33C22.70-4.68 22.69-5.07 22.66-5.50C22.62-5.92 22.60-6.31 22.57-6.66L22.62-6.66L23.24-4.91L24.77-0.79L25.33-0.79L26.84-4.91L27.48-6.66L27.53-6.66C27.50-6.31 27.47-5.92 27.44-5.50C27.41-5.07 27.40-4.68 27.40-4.33L27.40 0L28.34 0L28.34-7.87L27.17-7.87L25.66-3.65L25.10-2.04L25.06-2.04L24.48-3.65L22.96-7.87ZM33.85-3.20L31.49-3.20L31.86-4.40C32.00-4.84 32.14-5.28 32.27-5.72C32.40-6.15 32.52-6.60 32.64-7.06L32.69-7.06C32.82-6.60 32.94-6.15 33.07-5.72C33.20-5.28 33.34-4.84 33.48-4.40ZM34.10-2.40L34.85 0L35.92 0L33.25-7.87L32.12-7.87L29.46 0L30.48 0L31.24-2.40ZM37.03-7.87L37.03 0L37.98 0L37.98-4.12C37.98-4.53 37.97-4.95 37.94-5.36C37.91-5.77 37.88-6.18 37.85-6.58L37.90-6.58L38.75-4.96L41.60 0L42.64 0L42.64-7.87L41.69-7.87L41.69-3.80C41.69-3.39 41.70-2.97 41.73-2.54C41.76-2.11 41.78-1.70 41.81-1.30L41.76-1.30L40.91-2.93L38.06-7.87ZM46.07-3.05L46.07 0L47.08 0L47.08-3.05L49.44-7.87L48.40-7.87L47.39-5.65C47.27-5.36 47.14-5.08 47.00-4.80C46.87-4.52 46.73-4.23 46.60-3.94L46.55-3.94C46.41-4.23 46.28-4.52 46.16-4.80C46.04-5.08 45.92-5.36 45.79-5.65L44.77-7.87L43.70-7.87Z" transform="translate(-0.624, 8.016)"/></g></g></g></g></g><defs v-gra="od"/>
  </svg>


